ffmpeg started on 2026-03-24 at 13:02:30
Report written to "D:\Convert\FFMetrics\reports\psnr_report-6.txt"
Log level: 32
Command line:
ffmpeg -hide_banner -nostdin -r 24000/1001 -i "F:\\\xc0\xed\xe8\xec\xe5\\LightFamily\\\xcc\xee\xe6\xe5\xf2 \xeb\xe8 \xf1\xf3\xf9\xe5\xf1\xf2\xe2\xee\xe2\xe0\xf2\xfc \xe4\xf0\xf3\xe6\xe1\xe0 \xec\xe5\xe6\xe4\xf3 \xec\xf3\xe6\xf7\xe8\xed\xee\xe9 \xe8 \xe6\xe5\xed\xf9\xe8\xed\xee\xe9 (\xcd\xe5\xf2, \xfd\xf2\xee \xed\xe5 \xf2\xe0\xea!)\\LightFamilyDUB_\xcc\xee\xe6\xe5\xf2_\xeb\xe8_\xf1\xf3\xf9\xe5\xf1\xf2\xe2\xee\xe2\xe0\xf2\xfc_\xe4\xf0\xf3\xe6\xe1\xe0_\xec\xe5\xe6\xe4\xf3_\xef\xe0\xf0\xed\xe5\xec_\xe8_\xe4\xe5\xe2\xf3\xf8\xea\xee\xe9_09_HEVC.mkv" -r 24000/1001 -i "F:\\\xc0\xed\xe8\xec\xe5\\LightFamily\\\xcc\xee\xe6\xe5\xf2 \xeb\xe8 \xf1\xf3\xf9\xe5\xf1\xf2\xe2\xee\xe2\xe0\xf2\xfc \xe4\xf0\xf3\xe6\xe1\xe0 \xec\xe5\xe6\xe4\xf3 \xec\xf3\xe6\xf7\xe8\xed\xee\xe9 \xe8 \xe6\xe5\xed\xf9\xe8\xed\xee\xe9 (\xcd\xe5\xf2, \xfd\xf2\xee \xed\xe5 \xf2\xe0\xea!)\\LightFamilyDUB_\xcc\xee\xe6\xe5\xf2_\xeb\xe8_\xf1\xf3\xf9\xe5\xf1\xf2\xe2\xee\xe2\xe0\xf2\xfc_\xe4\xf0\xf3\xe6\xe1\xe0_\xec\xe5\xe6\xe4\xf3_\xef\xe0\xf0\xed\xe5\xec_\xe8_\xe4\xe5\xe2\xf3\xf8\xea\xee\xe9_09.mp4" -lavfi "[0:v]settb=AVTB,setpts=PTS-STARTPTS,format=pix_fmts=yuv420p10le,fps=24000/1001,scale=1920:1080:flags=lanczos:param0=3:out_range=limited:out_color_matrix=bt709:out_chroma_loc=left,setsar=1/1,setdar=(1920/1080)*(1/1),colorspace=format=yuv420p10:range=tv:primaries=bt709:trc=bt709:space=bt709:fast=0[main];[1:v]settb=AVTB,setpts=PTS-STARTPTS,format=pix_fmts=yuv420p,fps=24000/1001,scale=1920:1080:flags=lanczos:param0=3:out_range=limited:out_color_matrix=bt709:out_chroma_loc=left,setsar=1/1,setdar=(1920/1080)*(1/1),colorspace=format=yuv420p:range=tv:primaries=bt709:trc=bt709:space=bt709:fast=0[ref];[main][ref]psnr=eof_action=endall:stats_file='D\\:/Convert/FFMetrics/logs/psnr_logfile-6.txt'" -f null -
Input #0, matroska,webm, from 'F:\Аниме\LightFamily\Может ли существовать дружба между мужчиной и женщиной (Нет, это не так!)\LightFamilyDUB_Может_ли_существовать_дружба_между_парнем_и_девушкой_09_HEVC.mkv':
  Metadata:
    COMPATIBLE_BRANDS: mp42mp41
    MAJOR_BRAND     : mp42
    MINOR_VERSION   : 0
    ENCODER         : Lavf61.7.100
  Duration: 00:23:39.90, start: -0.021000, bitrate: 981 kb/s
  Stream #0:0(eng): Video: hevc (Main 10), yuv420p10le(tv, bt709, progressive), 1920x1080 [SAR 1:1 DAR 16:9], 23.98 fps, 23.98 tbr, 1k tbn (default)
      Metadata:
        HANDLER_NAME    : Mainconcept Video Media Handler
        VENDOR_ID       : [0][0][0][0]
        ENCODER         : Lavc61.19.100 libx265
        BPS             : 782919
        DURATION        : 00:23:39.876708333
        NUMBER_OF_FRAMES: 34043
        NUMBER_OF_BYTES : 138956138
        _STATISTICS_WRITING_APP: mkvpropedit v94.0 ('Initiate') 64-bit
        _STATISTICS_WRITING_DATE_UTC: 2026-03-23 14:26:26
        _STATISTICS_TAGS: BPS DURATION NUMBER_OF_FRAMES NUMBER_OF_BYTES
  Stream #0:1(eng): Audio: aac (LC), 48000 Hz, stereo, fltp (default)
      Metadata:
        HANDLER_NAME    : #Mainconcept MP4 Sound Media Handler
        VENDOR_ID       : [0][0][0][0]
        ENCODER         : Lavc61.19.100 aac
        BPS             : 195021
        DURATION        : 00:23:39.882000000
        NUMBER_OF_FRAMES: 66558
        NUMBER_OF_BYTES : 34613474
        _STATISTICS_WRITING_APP: mkvpropedit v94.0 ('Initiate') 64-bit
        _STATISTICS_WRITING_DATE_UTC: 2026-03-23 14:26:26
        _STATISTICS_TAGS: BPS DURATION NUMBER_OF_FRAMES NUMBER_OF_BYTES
Input #1, mov,mp4,m4a,3gp,3g2,mj2, from 'F:\Аниме\LightFamily\Может ли существовать дружба между мужчиной и женщиной (Нет, это не так!)\LightFamilyDUB_Может_ли_существовать_дружба_между_парнем_и_девушкой_09.mp4':
  Metadata:
    major_brand     : mp42
    minor_version   : 0
    compatible_brands: mp42mp41
    creation_time   : 2026-01-22T03:21:44.000000Z
  Duration: 00:23:39.88, start: 0.000000, bitrate: 8387 kb/s
  Stream #1:0[0x1](eng): Video: h264 (Main) (avc1 / 0x31637661), yuv420p(tv, bt709, progressive), 1920x1080, 8002 kb/s, 23.98 fps, 23.98 tbr, 24k tbn (default)
      Metadata:
        creation_time   : 2026-01-22T03:21:44.000000Z
        handler_name    : Mainconcept Video Media Handler
        vendor_id       : [0][0][0][0]
        encoder         : AVC Coding
  Stream #1:1[0x2](eng): Audio: aac (LC) (mp4a / 0x6134706D), 48000 Hz, stereo, fltp, 381 kb/s (default)
      Metadata:
        creation_time   : 2026-01-22T03:21:44.000000Z
        handler_name    : #Mainconcept MP4 Sound Media Handler
        vendor_id       : [0][0][0][0]
Stream mapping:
  Stream #0:0 (hevc) -> settb:default
  Stream #1:0 (h264) -> settb:default
  psnr:default -> Stream #0:0 (wrapped_avframe)
  Stream #0:1 -> #0:1 (aac (native) -> pcm_s16le (native))
Output #0, null, to 'pipe:':
  Metadata:
    COMPATIBLE_BRANDS: mp42mp41
    MAJOR_BRAND     : mp42
    MINOR_VERSION   : 0
    encoder         : Lavf61.7.100
  Stream #0:0: Video: wrapped_avframe, yuv420p10le(tv, bt709, progressive), 1920x1080 [SAR 1:1 DAR 16:9], q=2-31, 200 kb/s, 23.98 fps, 23.98 tbn
      Metadata:
        encoder         : Lavc61.19.100 wrapped_avframe
  Stream #0:1(eng): Audio: pcm_s16le, 48000 Hz, stereo, s16, 1536 kb/s (default)
      Metadata:
        HANDLER_NAME    : #Mainconcept MP4 Sound Media Handler
        VENDOR_ID       : [0][0][0][0]
        _STATISTICS_TAGS: BPS DURATION NUMBER_OF_FRAMES NUMBER_OF_BYTES
        BPS             : 195021
        DURATION        : 00:23:39.882000000
        NUMBER_OF_FRAMES: 66558
        NUMBER_OF_BYTES : 34613474
        _STATISTICS_WRITING_APP: mkvpropedit v94.0 ('Initiate') 64-bit
        _STATISTICS_WRITING_DATE_UTC: 2026-03-23 14:26:26
        encoder         : Lavc61.19.100 pcm_s16le
frame=  146 fps=0.0 q=-0.0 size=N/A time=00:00:06.08 bitrate=N/A speed=11.8x    frame=  310 fps=302 q=-0.0 size=N/A time=00:00:12.92 bitrate=N/A speed=12.6x    frame=  466 fps=303 q=-0.0 size=N/A time=00:00:19.43 bitrate=N/A speed=12.6x    frame=  661 fps=320 q=-0.0 size=N/A time=00:00:27.56 bitrate=N/A speed=13.4x    frame=  844 fps=328 q=-0.0 size=N/A time=00:00:35.20 bitrate=N/A speed=13.7x    frame= 1013 fps=329 q=-0.0 size=N/A time=00:00:42.25 bitrate=N/A speed=13.7x    frame= 1191 fps=330 q=-0.0 size=N/A time=00:00:49.67 bitrate=N/A speed=13.8x    frame= 1370 fps=332 q=-0.0 size=N/A time=00:00:57.14 bitrate=N/A speed=13.9x    frame= 1532 fps=331 q=-0.0 size=N/A time=00:01:03.89 bitrate=N/A speed=13.8x    frame= 1708 fps=331 q=-0.0 size=N/A time=00:01:11.23 bitrate=N/A speed=13.8x    frame= 1879 fps=331 q=-0.0 size=N/A time=00:01:18.36 bitrate=N/A speed=13.8x    frame= 2044 fps=331 q=-0.0 size=N/A time=00:01:25.25 bitrate=N/A speed=13.8x    frame= 2226 fps=332 q=-0.0 size=N/A time=00:01:32.84 bitrate=N/A speed=13.8x    frame= 2410 fps=334 q=-0.0 size=N/A time=00:01:40.51 bitrate=N/A speed=13.9x    frame= 2599 fps=336 q=-0.0 size=N/A time=00:01:48.39 bitrate=N/A speed=  14x    frame= 2794 fps=339 q=-0.0 size=N/A time=00:01:56.53 bitrate=N/A speed=14.1x    frame= 2981 fps=340 q=-0.0 size=N/A time=00:02:04.33 bitrate=N/A speed=14.2x    frame= 3174 fps=342 q=-0.0 size=N/A time=00:02:12.38 bitrate=N/A speed=14.3x    frame= 3367 fps=344 q=-0.0 size=N/A time=00:02:20.43 bitrate=N/A speed=14.3x    frame= 3553 fps=345 q=-0.0 size=N/A time=00:02:28.18 bitrate=N/A speed=14.4x    frame= 3737 fps=345 q=-0.0 size=N/A time=00:02:35.86 bitrate=N/A speed=14.4x    frame= 3942 fps=348 q=-0.0 size=N/A time=00:02:44.41 bitrate=N/A speed=14.5x    frame= 4151 fps=350 q=-0.0 size=N/A time=00:02:53.13 bitrate=N/A speed=14.6x    frame= 4351 fps=352 q=-0.0 size=N/A time=00:03:01.47 bitrate=N/A speed=14.7x    frame= 4546 fps=353 q=-0.0 size=N/A time=00:03:09.60 bitrate=N/A speed=14.7x    frame= 4742 fps=354 q=-0.0 size=N/A time=00:03:17.78 bitrate=N/A speed=14.8x    frame= 4944 fps=355 q=-0.0 size=N/A time=00:03:26.20 bitrate=N/A speed=14.8x    frame= 5140 fps=356 q=-0.0 size=N/A time=00:03:34.38 bitrate=N/A speed=14.8x    frame= 5334 fps=357 q=-0.0 size=N/A time=00:03:42.47 bitrate=N/A speed=14.9x    frame= 5530 fps=358 q=-0.0 size=N/A time=00:03:50.64 bitrate=N/A speed=14.9x    frame= 5732 fps=359 q=-0.0 size=N/A time=00:03:59.07 bitrate=N/A speed=  15x    frame= 5917 fps=359 q=-0.0 size=N/A time=00:04:06.78 bitrate=N/A speed=  15x    frame= 6100 fps=358 q=-0.0 size=N/A time=00:04:14.42 bitrate=N/A speed=14.9x    frame= 6289 fps=359 q=-0.0 size=N/A time=00:04:22.30 bitrate=N/A speed=  15x    frame= 6482 fps=359 q=-0.0 size=N/A time=00:04:30.35 bitrate=N/A speed=  15x    frame= 6673 fps=360 q=-0.0 size=N/A time=00:04:38.31 bitrate=N/A speed=  15x    frame= 6863 fps=360 q=-0.0 size=N/A time=00:04:46.24 bitrate=N/A speed=  15x    frame= 7064 fps=360 q=-0.0 size=N/A time=00:04:54.62 bitrate=N/A speed=  15x    frame= 7254 fps=360 q=-0.0 size=N/A time=00:05:02.55 bitrate=N/A speed=  15x    frame= 7449 fps=361 q=-0.0 size=N/A time=00:05:10.68 bitrate=N/A speed=15.1x    frame= 7647 fps=362 q=-0.0 size=N/A time=00:05:18.94 bitrate=N/A speed=15.1x    frame= 7837 fps=362 q=-0.0 size=N/A time=00:05:26.86 bitrate=N/A speed=15.1x    frame= 8029 fps=362 q=-0.0 size=N/A time=00:05:34.87 bitrate=N/A speed=15.1x    frame= 8217 fps=362 q=-0.0 size=N/A time=00:05:42.71 bitrate=N/A speed=15.1x    frame= 8424 fps=363 q=-0.0 size=N/A time=00:05:51.35 bitrate=N/A speed=15.1x    frame= 8618 fps=363 q=-0.0 size=N/A time=00:05:59.44 bitrate=N/A speed=15.1x    frame= 8803 fps=363 q=-0.0 size=N/A time=00:06:07.15 bitrate=N/A speed=15.1x    frame= 8993 fps=363 q=-0.0 size=N/A time=00:06:15.08 bitrate=N/A speed=15.2x    frame= 9197 fps=364 q=-0.0 size=N/A time=00:06:23.59 bitrate=N/A speed=15.2x    frame= 9393 fps=364 q=-0.0 size=N/A time=00:06:31.76 bitrate=N/A speed=15.2x    frame= 9587 fps=364 q=-0.0 size=N/A time=00:06:39.85 bitrate=N/A speed=15.2x    frame= 9775 fps=364 q=-0.0 size=N/A time=00:06:47.69 bitrate=N/A speed=15.2x    frame= 9967 fps=365 q=-0.0 size=N/A time=00:06:55.70 bitrate=N/A speed=15.2x    frame=10162 fps=365 q=-0.0 size=N/A time=00:07:03.84 bitrate=N/A speed=15.2x    frame=10351 fps=365 q=-0.0 size=N/A time=00:07:11.72 bitrate=N/A speed=15.2x    frame=10521 fps=364 q=-0.0 size=N/A time=00:07:18.81 bitrate=N/A speed=15.2x    frame=10715 fps=364 q=-0.0 size=N/A time=00:07:26.90 bitrate=N/A speed=15.2x    frame=10903 fps=364 q=-0.0 size=N/A time=00:07:34.74 bitrate=N/A speed=15.2x    frame=11089 fps=364 q=-0.0 size=N/A time=00:07:42.50 bitrate=N/A speed=15.2x    frame=11279 fps=364 q=-0.0 size=N/A time=00:07:50.42 bitrate=N/A speed=15.2x    frame=11470 fps=364 q=-0.0 size=N/A time=00:07:58.39 bitrate=N/A speed=15.2x    frame=11667 fps=365 q=-0.0 size=N/A time=00:08:06.61 bitrate=N/A speed=15.2x    frame=11860 fps=365 q=-0.0 size=N/A time=00:08:14.66 bitrate=N/A speed=15.2x    frame=12041 fps=365 q=-0.0 size=N/A time=00:08:22.21 bitrate=N/A speed=15.2x    frame=12239 fps=365 q=-0.0 size=N/A time=00:08:30.51 bitrate=N/A speed=15.2x    frame=12428 fps=365 q=-0.0 size=N/A time=00:08:38.35 bitrate=N/A speed=15.2x    frame=12617 fps=365 q=-0.0 size=N/A time=00:08:46.23 bitrate=N/A speed=15.2x    frame=12810 fps=365 q=-0.0 size=N/A time=00:08:54.28 bitrate=N/A speed=15.2x    frame=13002 fps=365 q=-0.0 size=N/A time=00:09:02.29 bitrate=N/A speed=15.2x    frame=13192 fps=365 q=-0.0 size=N/A time=00:09:10.21 bitrate=N/A speed=15.2x    frame=13395 fps=366 q=-0.0 size=N/A time=00:09:18.68 bitrate=N/A speed=15.3x    frame=13588 fps=366 q=-0.0 size=N/A time=00:09:26.73 bitrate=N/A speed=15.3x    frame=13775 fps=366 q=-0.0 size=N/A time=00:09:34.53 bitrate=N/A speed=15.3x    frame=13961 fps=366 q=-0.0 size=N/A time=00:09:42.29 bitrate=N/A speed=15.2x    frame=14152 fps=366 q=-0.0 size=N/A time=00:09:50.25 bitrate=N/A speed=15.3x    frame=14345 fps=366 q=-0.0 size=N/A time=00:09:58.30 bitrate=N/A speed=15.3x    frame=14548 fps=366 q=-0.0 size=N/A time=00:10:06.77 bitrate=N/A speed=15.3x    frame=14739 fps=366 q=-0.0 size=N/A time=00:10:14.73 bitrate=N/A speed=15.3x    frame=14921 fps=366 q=-0.0 size=N/A time=00:10:22.33 bitrate=N/A speed=15.3x    frame=15109 fps=366 q=-0.0 size=N/A time=00:10:30.17 bitrate=N/A speed=15.3x    frame=15310 fps=366 q=-0.0 size=N/A time=00:10:38.55 bitrate=N/A speed=15.3x    frame=15502 fps=366 q=-0.0 size=N/A time=00:10:46.56 bitrate=N/A speed=15.3x    frame=15696 fps=367 q=-0.0 size=N/A time=00:10:54.65 bitrate=N/A speed=15.3x    frame=15869 fps=366 q=-0.0 size=N/A time=00:11:01.86 bitrate=N/A speed=15.3x    frame=16065 fps=366 q=-0.0 size=N/A time=00:11:10.04 bitrate=N/A speed=15.3x    frame=16258 fps=366 q=-0.0 size=N/A time=00:11:18.09 bitrate=N/A speed=15.3x    frame=16454 fps=367 q=-0.0 size=N/A time=00:11:26.26 bitrate=N/A speed=15.3x    frame=16655 fps=367 q=-0.0 size=N/A time=00:11:34.65 bitrate=N/A speed=15.3x    frame=16843 fps=367 q=-0.0 size=N/A time=00:11:42.49 bitrate=N/A speed=15.3x    frame=17031 fps=367 q=-0.0 size=N/A time=00:11:50.33 bitrate=N/A speed=15.3x    frame=17225 fps=367 q=-0.0 size=N/A time=00:11:58.42 bitrate=N/A speed=15.3x    frame=17419 fps=367 q=-0.0 size=N/A time=00:12:06.51 bitrate=N/A speed=15.3x    frame=17623 fps=367 q=-0.0 size=N/A time=00:12:15.02 bitrate=N/A speed=15.3x    frame=17805 fps=367 q=-0.0 size=N/A time=00:12:22.61 bitrate=N/A speed=15.3x    frame=17971 fps=367 q=-0.0 size=N/A time=00:12:29.54 bitrate=N/A speed=15.3x    frame=18164 fps=367 q=-0.0 size=N/A time=00:12:37.59 bitrate=N/A speed=15.3x    frame=18364 fps=367 q=-0.0 size=N/A time=00:12:45.93 bitrate=N/A speed=15.3x    frame=18560 fps=367 q=-0.0 size=N/A time=00:12:54.10 bitrate=N/A speed=15.3x    frame=18752 fps=367 q=-0.0 size=N/A time=00:13:02.11 bitrate=N/A speed=15.3x    frame=18937 fps=367 q=-0.0 size=N/A time=00:13:09.83 bitrate=N/A speed=15.3x    frame=19112 fps=367 q=-0.0 size=N/A time=00:13:17.12 bitrate=N/A speed=15.3x    frame=19307 fps=367 q=-0.0 size=N/A time=00:13:25.26 bitrate=N/A speed=15.3x    frame=19495 fps=367 q=-0.0 size=N/A time=00:13:33.10 bitrate=N/A speed=15.3x    frame=19681 fps=367 q=-0.0 size=N/A time=00:13:40.86 bitrate=N/A speed=15.3x    frame=19865 fps=367 q=-0.0 size=N/A time=00:13:48.53 bitrate=N/A speed=15.3x    frame=20063 fps=367 q=-0.0 size=N/A time=00:13:56.79 bitrate=N/A speed=15.3x    frame=20251 fps=367 q=-0.0 size=N/A time=00:14:04.63 bitrate=N/A speed=15.3x    frame=20449 fps=367 q=-0.0 size=N/A time=00:14:12.89 bitrate=N/A speed=15.3x    frame=20633 fps=367 q=-0.0 size=N/A time=00:14:20.56 bitrate=N/A speed=15.3x    frame=20833 fps=367 q=-0.0 size=N/A time=00:14:28.90 bitrate=N/A speed=15.3x    frame=21038 fps=367 q=-0.0 size=N/A time=00:14:37.45 bitrate=N/A speed=15.3x    frame=21232 fps=367 q=-0.0 size=N/A time=00:14:45.55 bitrate=N/A speed=15.3x    frame=21426 fps=368 q=-0.0 size=N/A time=00:14:53.64 bitrate=N/A speed=15.3x    frame=21616 fps=368 q=-0.0 size=N/A time=00:15:01.56 bitrate=N/A speed=15.3x    frame=21808 fps=368 q=-0.0 size=N/A time=00:15:09.57 bitrate=N/A speed=15.3x    frame=22016 fps=368 q=-0.0 size=N/A time=00:15:18.25 bitrate=N/A speed=15.3x    frame=22211 fps=368 q=-0.0 size=N/A time=00:15:26.38 bitrate=N/A speed=15.3x    frame=22399 fps=368 q=-0.0 size=N/A time=00:15:34.22 bitrate=N/A speed=15.3x    frame=22603 fps=368 q=-0.0 size=N/A time=00:15:42.73 bitrate=N/A speed=15.4x    frame=22798 fps=368 q=-0.0 size=N/A time=00:15:50.86 bitrate=N/A speed=15.4x    frame=22991 fps=368 q=-0.0 size=N/A time=00:15:58.91 bitrate=N/A speed=15.4x    frame=23182 fps=368 q=-0.0 size=N/A time=00:16:06.88 bitrate=N/A speed=15.4x    frame=23357 fps=368 q=-0.0 size=N/A time=00:16:14.18 bitrate=N/A speed=15.3x    frame=23546 fps=368 q=-0.0 size=N/A time=00:16:22.06 bitrate=N/A speed=15.4x    frame=23734 fps=368 q=-0.0 size=N/A time=00:16:29.90 bitrate=N/A speed=15.3x    frame=23917 fps=368 q=-0.0 size=N/A time=00:16:37.53 bitrate=N/A speed=15.3x    frame=24100 fps=368 q=-0.0 size=N/A time=00:16:45.17 bitrate=N/A speed=15.3x    frame=24295 fps=368 q=-0.0 size=N/A time=00:16:53.30 bitrate=N/A speed=15.3x    frame=24477 fps=368 q=-0.0 size=N/A time=00:17:00.89 bitrate=N/A speed=15.3x    frame=24675 fps=368 q=-0.0 size=N/A time=00:17:09.15 bitrate=N/A speed=15.3x    frame=24868 fps=368 q=-0.0 size=N/A time=00:17:17.20 bitrate=N/A speed=15.3x    frame=25064 fps=368 q=-0.0 size=N/A time=00:17:25.37 bitrate=N/A speed=15.4x    frame=25261 fps=368 q=-0.0 size=N/A time=00:17:33.59 bitrate=N/A speed=15.4x    frame=25453 fps=368 q=-0.0 size=N/A time=00:17:41.60 bitrate=N/A speed=15.4x    frame=25640 fps=368 q=-0.0 size=N/A time=00:17:49.40 bitrate=N/A speed=15.4x    frame=25826 fps=368 q=-0.0 size=N/A time=00:17:57.15 bitrate=N/A speed=15.4x    frame=26023 fps=368 q=-0.0 size=N/A time=00:18:05.37 bitrate=N/A speed=15.4x    frame=26208 fps=368 q=-0.0 size=N/A time=00:18:13.09 bitrate=N/A speed=15.4x    frame=26396 fps=368 q=-0.0 size=N/A time=00:18:20.93 bitrate=N/A speed=15.4x    frame=26580 fps=368 q=-0.0 size=N/A time=00:18:28.60 bitrate=N/A speed=15.3x    frame=26775 fps=368 q=-0.0 size=N/A time=00:18:36.74 bitrate=N/A speed=15.4x    frame=26965 fps=368 q=-0.0 size=N/A time=00:18:44.66 bitrate=N/A speed=15.4x    frame=27155 fps=368 q=-0.0 size=N/A time=00:18:52.58 bitrate=N/A speed=15.4x    frame=27348 fps=368 q=-0.0 size=N/A time=00:19:00.63 bitrate=N/A speed=15.4x    frame=27540 fps=368 q=-0.0 size=N/A time=00:19:08.64 bitrate=N/A speed=15.4x    frame=27743 fps=368 q=-0.0 size=N/A time=00:19:17.11 bitrate=N/A speed=15.4x    frame=27921 fps=368 q=-0.0 size=N/A time=00:19:24.53 bitrate=N/A speed=15.4x    frame=28111 fps=368 q=-0.0 size=N/A time=00:19:32.46 bitrate=N/A speed=15.4x    frame=28296 fps=368 q=-0.0 size=N/A time=00:19:40.17 bitrate=N/A speed=15.4x    frame=28489 fps=368 q=-0.0 size=N/A time=00:19:48.22 bitrate=N/A speed=15.4x    frame=28678 fps=368 q=-0.0 size=N/A time=00:19:56.11 bitrate=N/A speed=15.4x    frame=28863 fps=368 q=-0.0 size=N/A time=00:20:03.82 bitrate=N/A speed=15.4x    frame=29068 fps=368 q=-0.0 size=N/A time=00:20:12.37 bitrate=N/A speed=15.4x    frame=29262 fps=368 q=-0.0 size=N/A time=00:20:20.46 bitrate=N/A speed=15.4x    frame=29459 fps=368 q=-0.0 size=N/A time=00:20:28.68 bitrate=N/A speed=15.4x    frame=29656 fps=368 q=-0.0 size=N/A time=00:20:36.90 bitrate=N/A speed=15.4x    frame=29847 fps=369 q=-0.0 size=N/A time=00:20:44.86 bitrate=N/A speed=15.4x    frame=30032 fps=368 q=-0.0 size=N/A time=00:20:52.58 bitrate=N/A speed=15.4x    frame=30213 fps=368 q=-0.0 size=N/A time=00:21:00.13 bitrate=N/A speed=15.4x    frame=30404 fps=368 q=-0.0 size=N/A time=00:21:08.10 bitrate=N/A speed=15.4x    frame=30601 fps=368 q=-0.0 size=N/A time=00:21:16.31 bitrate=N/A speed=15.4x    frame=30787 fps=368 q=-0.0 size=N/A time=00:21:24.07 bitrate=N/A speed=15.4x    frame=30979 fps=368 q=-0.0 size=N/A time=00:21:32.08 bitrate=N/A speed=15.4x    frame=31180 fps=368 q=-0.0 size=N/A time=00:21:40.46 bitrate=N/A speed=15.4x    frame=31374 fps=369 q=-0.0 size=N/A time=00:21:48.55 bitrate=N/A speed=15.4x    frame=31575 fps=369 q=-0.0 size=N/A time=00:21:56.94 bitrate=N/A speed=15.4x    frame=31774 fps=369 q=-0.0 size=N/A time=00:22:05.24 bitrate=N/A speed=15.4x    frame=31959 fps=369 q=-0.0 size=N/A time=00:22:12.95 bitrate=N/A speed=15.4x    frame=32141 fps=368 q=-0.0 size=N/A time=00:22:20.54 bitrate=N/A speed=15.4x    frame=32311 fps=368 q=-0.0 size=N/A time=00:22:27.63 bitrate=N/A speed=15.4x    frame=32484 fps=368 q=-0.0 size=N/A time=00:22:34.85 bitrate=N/A speed=15.4x    frame=32658 fps=368 q=-0.0 size=N/A time=00:22:42.11 bitrate=N/A speed=15.3x    frame=32817 fps=368 q=-0.0 size=N/A time=00:22:48.74 bitrate=N/A speed=15.3x    frame=33000 fps=367 q=-0.0 size=N/A time=00:22:56.37 bitrate=N/A speed=15.3x    frame=33172 fps=367 q=-0.0 size=N/A time=00:23:03.54 bitrate=N/A speed=15.3x    frame=33349 fps=367 q=-0.0 size=N/A time=00:23:10.93 bitrate=N/A speed=15.3x    frame=33524 fps=367 q=-0.0 size=N/A time=00:23:18.23 bitrate=N/A speed=15.3x    frame=33708 fps=367 q=-0.0 size=N/A time=00:23:25.90 bitrate=N/A speed=15.3x    frame=33893 fps=367 q=-0.0 size=N/A time=00:23:33.62 bitrate=N/A speed=15.3x    [Parsed_psnr_16 @ 000001fea624e340] PSNR y:48.306677 u:50.512928 v:50.255158 average:48.894727 min:40.671118 max:73.145954
[out#0/null @ 000001fe98df3a00] video:14628KiB audio:266232KiB subtitle:0KiB other streams:0KiB global headers:0KiB muxing overhead: unknown
frame=34043 fps=367 q=-0.0 Lsize=N/A time=00:23:39.87 bitrate=N/A speed=15.3x    
